# xmcd
#
# Track frame offsets:
#	150
#	14267
#	31395
#	43317
#	59002
#	73347
#	88897
#	101730
#	119570
#	136997
#	155827
#	174752
#	188835
#	207022
#	220665
#	236340
#	257372
#
# Disc length: 3705 seconds
#
# Revision: 7
# Processed by: cddbd v1.5.2PL0 Copyright (c) Steve Scherf et al.
# Submitted via: audiograbber 1.83.01
#
DISCID=f60e7711
DTITLE=Lorrie Morgan - To Get To You - Greatest Hits Collection
DYEAR=2000
DGENRE=Oldies
TTITLE0=We Both Walk
TTITLE1=Half Enough
TTITLE2=Another Lonely Song
TTITLE3=Whoop-De-Do
TTITLE4=Lorrie Morgan and Jon Randall_By My Side  
TTITLE5=Good As I Was To You
TTITLE6=Go Away
TTITLE7=To Get To You
TTITLE8=One Of Those Nights Tonight
TTITLE9=Lorrie Morgan and Sammy Kershaw_Maybe Not Tonight 
TTITLE10=I Guess You Had To Be There
TTITLE11=Trainwreck Of Emotion
TTITLE12=If I Cry
TTITLE13=Standing Tall
TTITLE14=He Talks To Me
TTITLE15=Something In Red
TTITLE16=Angel
EXTD=
EXTT0=
EXTT1=
EXTT2=
EXTT3=
EXTT4=
EXTT5=
EXTT6=
EXTT7=
EXTT8=
EXTT9=
EXTT10=
EXTT11=
EXTT12=
EXTT13=
EXTT14=
EXTT15=
EXTT16=
PLAYORDER=
